<?xml version="1.0" standalone="no"?>
<!DOCTYPE svg PUBLIC "-//W3C//DTD SVG 20010904//EN"
 "http://www.w3.org/TR/2001/REC-SVG-20010904/DTD/svg10.dtd">
<svg version="1.0" xmlns="http://www.w3.org/2000/svg"
 width="512.000000pt" height="512.000000pt" viewBox="0 0 512.000000 512.000000"
 preserveAspectRatio="xMidYMid meet">
<metadata>
Created by potrace 1.15, written by Peter Selinger 2001-2017
</metadata>
<g transform="translate(0.000000,512.000000) scale(0.100000,-0.100000)"
fill="#000000" stroke="none">
<path d="M1904 3830 c-202 -22 -345 -110 -387 -240 -40 -123 -7 -309 65 -375
49 -45 161 -88 338 -129 85 -20 168 -40 185 -44 21 -6 48 -3 90 11 40 12 106
21 198 25 l139 7 -22 27 c-11 15 -35 32 -53 37 -18 5 -59 21 -92 35 -33 14
-154 48 -270 76 -115 28 -228 61 -250 73 -47 26 -101 104 -110 157 -9 52 18
114 61 140 51 32 90 40 192 41 111 0 167 -16 237 -69 44 -34 50 -42 47 -70
l-4 -33 49 6 c246 33 228 28 225 58 -7 70 -82 190 -124 200 -13 3 -54 17 -93
31 -41 14 -112 29 -174 35 -113 12 -141 12 -247 1z"/>
<path d="M2354 3030 c-133 -15 -253 -61 -308 -119 -13 -14 -40 -53 -58 -86
-19 -33 -45 -65 -58 -72 l-24 -12 25 -5 c23 -6 235 -36 250 -36 4 0 10 12 14
28 10 41 51 90 95 112 53 27 60 25 60 -13 0 -56 -39 -116 -96 -148 -90 -51
-266 -61 -395 -23 -62 19 -121 75 -166 159 -18 33 -33 52 -33 42 0 -22 -24
-31 -128 -47 -50 -8 -86 -18 -89 -26 -3 -7 7 -39 21 -70 14 -31 26 -62 26 -69
0 -21 83 -90 142 -118 104 -49 176 -61 368 -61 198 0 256 10 377 69 48 24 87
52 117 86 46 51 86 138 86 187 0 55 13 59 77 25 82 -42 106 -80 101 -160 -3
-53 -9 -68 -33 -94 -47 -49 -90 -65 -323 -123 -318 -77 -400 -122 -458 -248
-24 -54 -28 -76 -29 -153 0 -119 39 -241 91 -280 87 -66 210 -103 374 -112 99
-5 119 -9 142 -28 45 -38 166 -81 332 -120 217 -50 272 -68 336 -113 89 -62
112 -137 67 -222 -44 -83 -188 -131 -350 -115 -151 14 -218 57 -284 180 -18
33 -33 52 -33 42 0 -22 -24 -31 -128 -47 -50 -8 -86 -18 -89 -26 -3 -7 7 -39
21 -70 14 -31 26 -62 26 -69 0 -21 83 -90 142 -118 104 -49 176 -61 368 -61
198 0 256 10 377 69 87 43 153 112 184 193 59 155 1 389 -103 421 -18 5 -61
21 -95 35 -34 14 -146 46 -249 71 -104 25 -190 47 -192 49 -2 3 22 23 52 46
64 49 127 136 146 204 15 54 9 64 -26 46 -20 -11 -38 -12 -95 -2 -97 17 -96
17 -120 -30 -48 -95 -123 -143 -254 -160 -172 -23 -313 19 -368 110 -68 111
-38 212 79 264 23 10 125 38 226 63 209 50 299 81 361 124 101 70 138 141 145
273 8 165 -42 251 -178 306 -41 17 -101 35 -133 41 -83 15 -251 21 -333 11z"/>
<path d="M2834 2260 c-250 -27 -404 -155 -404 -336 l0 -44 46 0 c25 0 76 7
115 16 62 14 69 18 69 40 0 44 31 103 66 124 51 32 90 40 192 41 111 0 167
-16 237 -69 44 -34 50 -42 47 -70 l-4 -33 49 6 c246 33 228 28 225 58 -7 70
-82 190 -124 200 -13 3 -54 17 -93 31 -41 14 -112 29 -174 35 -113 12 -141 12
-247 1z"/>
</g>
</svg>
